<svg id="Layer_1" data-name="Layer 1" xmlns="http://www.w3.org/2000/svg" viewBox="0 0 1190.55 841.89"><defs><style>.cls-1{fill:#fff;}</style></defs><title>logo</title><path class="cls-1" d="M394.32,153.64l-1,17.59q0,20.28-6.4,57.43t-16.48,76.07q-7.56,29-17.45,58.78T337.51,403L331.3,413.8q-4.85,8.28-10.76,12.52a24.11,24.11,0,0,1-14.44,4.24q-12.62,0-20.56-3.51t-13-12.22l-6.2-10.76A221.22,221.22,0,0,1,254,380.27q-4.56-10.56-10-26.91a242.8,242.8,0,0,1-7.76-30.21q-4.65-23.81-6.4-30.84L227,279.89l-2.32,10.78q-4.86,21.56-9.5,37.51-3.89,13.26-11.45,34.61-3.28,9.75-7.56,19.28-2.72,6.21-8.92,19.07L182,411.91q-4.84,10-11.73,13.89t-19.88,3.94q-12.79,0-21.91-7A30.74,30.74,0,0,1,118,408.82l-5.82-14.92q-8.72-22.56-13.86-40t-11-42.66Q81.35,286,77.1,250.58q-2.91-23.4-4.75-50.32T70.5,168.15V153.66q0-13.87,6.69-20.82t18.33-6.94A33.46,33.46,0,0,1,115,131.6q8.25,5.7,8.25,16.26v13.47q0,23,1,41.43t3.3,45.16a359.67,359.67,0,0,0,8.92,53.86q4.65,19.47,11.63,40,5.43,15.94,5.82,15.95,3.3-7,6.59-14.29,7.75-18,14.55-38.74a499.9,499.9,0,0,0,15.12-58.42q4.08-20.91,6.69-40.6T201.78,162l1.55-14.5q1-10.77,8.82-16.78t19.29-6q11.06,0,17.84,7.45T256.07,151l1,15.11a284.38,284.38,0,0,0,3.59,43.77q3.58,23.08,6.78,45t11.73,49.88q6.21,20.07,14.35,41,6.58,17,7.18,17,2.5-8.07,5.23-16.35,7-22.35,11.44-39.53,7.17-27.53,10.67-49.47t6-45.53q1.35-13.25,4.46-46.78L340,149.5q1-11.17,9.21-17.39t19.87-6.21q11.64,0,18.42,7.87T394.32,153.64Z"/><path class="cls-1" d="M485.45,154.05q0,15.52-7,23-6.21,6.61-17.84,6.62-12.4,0-19.48-8t-7.08-21.63v-7.66q0-11.37,8.05-17.9a29.37,29.37,0,0,1,19.1-6.52,24,24,0,0,1,17.16,6.73q7.06,6.72,7.07,18.11Zm0,239.85q0,15.12-6.69,23.1t-18.13,8q-12.21,0-19.39-9.12t-7.17-22V240.8q0-13.05,7.76-21.54a25.12,25.12,0,0,1,19.39-8.5,21.37,21.37,0,0,1,17.54,8.39q6.69,8.4,6.69,22.07Z"/><path class="cls-1" d="M709.79,350.73q0,31.11-20.16,52.68T639,425H548.27a27,27,0,0,1-18.42-7,20.12,20.12,0,0,1-7.17-17.39A21.42,21.42,0,0,1,528,386a16.71,16.71,0,0,1,13.09-6.1h90.55a26.17,26.17,0,0,0,19.1-8,27.16,27.16,0,0,0,8-20.06,19.61,19.61,0,0,0-6.59-15.27,32.19,32.19,0,0,0-16.68-7.59l-67.28-11.8q-19.79-3.51-30.54-18.21t-10.77-35.6q0-22.56,14.84-37.56t36.55-15h90.74q10.66,0,17.94,5.07t7.27,14.8q0,10.35-4.26,15.52Q685,252.36,673,252.36H591.51A25.13,25.13,0,0,0,581,254.44q-4.56,2.07-4.56,6.42A11.14,11.14,0,0,0,581,270.2a21.46,21.46,0,0,0,9.89,3.94l60.7,11.27q30.06,5.61,44.59,23Q709.8,324.62,709.79,350.73Z"/><path class="cls-1" d="M937.05,298.93a47.38,47.38,0,0,1-1.26,11.8,21.9,21.9,0,0,1-5.24,9.1,15.43,15.43,0,0,1-8.82,5.18,87.43,87.43,0,0,1-13.77.83H796.85q0,12.46,3.88,21.5a55.46,55.46,0,0,0,12.61,17.56,49.56,49.56,0,0,0,16.87,10.49,60.12,60.12,0,0,0,20.94,3.43h60.11q11.24,0,17.74,5.69t6.49,15.63q0,11.39-8.33,17.38Q916.87,425,893.42,425H854.06q-53.14,0-82-30.46-26.94-28.38-26.95-76.85,0-52.83,29.67-84.94,28.11-30.45,71.16-30.45,40.53,0,67.48,30.42,23.65,26.7,23.66,57.95Zm-51-13.45q-2.71-17-14.35-27.63A39.64,39.64,0,0,0,844,247.19,42.06,42.06,0,0,0,815.27,258a45.15,45.15,0,0,0-14.93,27.53Z"/><path class="cls-1" d="M1091,228.58q0,23.21-21.71,25.9-31.62,3.93-34.52,6.21-5.82,4.56-10,16.06a72.64,72.64,0,0,0-4.16,25v92.61q0,14.91-6.6,22.78T996,425q-12.21,0-18.71-8.92t-6.5-21.77V235.65q0-14.93,6.4-22.19T995,206.21q13.38,0,19.39,9.93a30.93,30.93,0,0,1,4.07,16.15,22.77,22.77,0,0,0-.19,2.27q1.35-4.14,6.2-11.17,5.63-8.28,10.67-11.59,8.53-5.6,24.24-5.59,13,0,21.52,5Q1091,217.2,1091,228.58Z"/><path class="cls-1" d="M221.9,651.88a19.49,19.49,0,0,1-6.74,15.1,22.78,22.78,0,0,1-15.74,6.07H192q-51.83,0-87.12-35.09T69.6,551.89q0-35.73,16.79-57.19,20-25.56,60.81-25.56h50.37q10.05,0,15.47,3.93,6.21,4.5,6.21,13.92a18.68,18.68,0,0,1-4.82,12.58q-4.83,5.55-11.31,5.55H154.21q-27.37,0-37.55,14.71-7.66,11-7.67,35.5,0,29.42,17.06,49.77,13.49,16.13,35.83,24.75,17.44,6.79,31.86,6.79h9a22.85,22.85,0,0,1,13.42,4A12.93,12.93,0,0,1,221.9,651.88Z"/><path class="cls-1" d="M378.82,597.34q0,33.84-16.39,55.13-18.24,23.82-51.69,23.82-30,0-49.45-23-18.65-22.12-18.64-53.85,0-31.31,19.77-54.42t48.32-23.13q29.86,0,49.31,22.42Q378.82,566.05,378.82,597.34Zm-35,0q0-16.76-8.73-29-9.39-13.25-23.66-13.24-14.55,0-24.06,13.38-9,12.54-9,29.59,0,18.45,7.93,32,9,15.22,23.8,15.22,15.85,0,25.25-15.22Q343.79,616.37,343.79,597.34Z"/><path class="cls-1" d="M513.14,653.56a20.84,20.84,0,0,1-4.82,13.63,14.92,14.92,0,0,1-12,5.86,15.41,15.41,0,0,1-12.23-5.86,21.09,21.09,0,0,1-4.95-14.06V578q0-9.88-4.37-15.68-5.15-6.91-15.47-6.92-12.16,0-21,9.61-8.06,8.76-8.06,19.07v68.1q0,10.17-4.63,15.54a15.41,15.41,0,0,1-12.29,5.37q-8.34,0-12.76-6.07a24.53,24.53,0,0,1-4.43-14.84V548q0-9,4.56-15a14.34,14.34,0,0,1,12-6q7.53,0,11,2.4,4.62,3.25,4.63,11.57,7.53-8.88,16-12.91a45.44,45.44,0,0,1,19.7-4q22.47,0,36.09,15.54,13.09,14.83,13.09,37.43Z"/><path class="cls-1" d="M653.28,653.56a20.8,20.8,0,0,1-4.83,13.63,14.9,14.9,0,0,1-12,5.86,15.39,15.39,0,0,1-12.23-5.86,21,21,0,0,1-5-14.06V578q0-9.88-4.36-15.68-5.16-6.91-15.47-6.92-12.16,0-21,9.61-8.07,8.76-8.06,19.07v68.1q0,10.17-4.63,15.54a15.44,15.44,0,0,1-12.3,5.37q-8.33,0-12.76-6.07a24.53,24.53,0,0,1-4.42-14.84V548q0-9,4.56-15a14.32,14.32,0,0,1,12-6q7.55,0,11,2.4,4.63,3.25,4.63,11.57,7.54-8.88,16-12.91a45.44,45.44,0,0,1,19.7-4q22.47,0,36.09,15.54,13.09,14.83,13.09,37.43Z"/><path class="cls-1" d="M808.22,587.11a32,32,0,0,1-.86,8,14.75,14.75,0,0,1-3.57,6.21,10.48,10.48,0,0,1-6,3.53,59.17,59.17,0,0,1-9.39.56H712.64a37.11,37.11,0,0,0,2.64,14.67,37.79,37.79,0,0,0,8.59,12,33.84,33.84,0,0,0,11.51,7.15,41,41,0,0,0,14.27,2.34h41q7.67,0,12.09,3.88t4.43,10.66q0,7.75-5.68,11.85-7,5.09-23,5.08H751.64q-36.23,0-55.93-20.76-18.37-19.35-18.37-52.41,0-36,20.22-57.91,19.17-20.76,48.52-20.76,27.63,0,46,20.74,16.13,18.21,16.13,39.51Zm-34.77-9.17a31.37,31.37,0,0,0-9.78-18.84,27,27,0,0,0-18.91-7.27,28.65,28.65,0,0,0-19.56,7.34A30.71,30.71,0,0,0,715,577.94Z"/><path class="cls-1" d="M956.42,654.42q0,8.9-5.88,13.9t-15.67,5H919.41q-41.25,0-66.11-24-24.19-23.42-24.19-61.1,0-26.54,16-43.61Q861.63,527,888.6,527h43q8.85,0,14.14,3,6.75,3.81,6.75,11.85v1.27a13.79,13.79,0,0,1-3.9,10.23,13.21,13.21,0,0,1-9.72,3.88H893.63q-12.43,0-21.09,10.09a35.33,35.33,0,0,0-8.66,23.78q0,23,17.58,36.83A56,56,0,0,0,917,640h21.15a20.88,20.88,0,0,1,12.62,4.09Q956.43,648.22,956.42,654.42Z"/><path class="cls-1" d="M1083.6,657.53A13.35,13.35,0,0,1,1078,669a22.85,22.85,0,0,1-13.82,4.09h-28.42a50.32,50.32,0,0,1-11.9-1.41,30.52,30.52,0,0,1-23.2-20.84,64.55,64.55,0,0,1-2.32-18.72v-76h-9.91A14.19,14.19,0,0,1,978,551.62,14.52,14.52,0,0,1,973.61,541a12.49,12.49,0,0,1,4.63-10.16A17.09,17.09,0,0,1,989.47,527H999V498.91a14.55,14.55,0,0,1,5.09-11.22,17.16,17.16,0,0,1,11.84-4.58,16.66,16.66,0,0,1,11.23,4.23,13.42,13.42,0,0,1,4.89,10.58V527h26.18q7.41,0,12.1,3.53c3.13,2.35,4.69,5.84,4.69,10.44a14.71,14.71,0,0,1-4.56,11.22q-4.56,4.3-12.23,4.31H1033.1v60.78a63.45,63.45,0,0,0,1.13,12.23q1.11,5.71,3.5,7.56a46.12,46.12,0,0,0,5.16,3.53A13.21,13.21,0,0,0,1049,642h14.8q8.6,0,14.22,4.1A13.35,13.35,0,0,1,1083.6,657.53Z"/></svg>