<svg id="Layer_1" data-name="Layer 1" xmlns="http://www.w3.org/2000/svg" xmlns:xlink="http://www.w3.org/1999/xlink" viewBox="0 0 200 200"><defs><style>.cls-1,.cls-10,.cls-2,.cls-3,.cls-4,.cls-5,.cls-6,.cls-7,.cls-8,.cls-9{fill:none;stroke-linejoin:round;stroke-width:4px;}.cls-1{stroke:url(#radial-gradient);}.cls-2{stroke:url(#radial-gradient-2);}.cls-3{stroke:url(#radial-gradient-3);}.cls-4{stroke:url(#radial-gradient-4);}.cls-5{stroke:url(#radial-gradient-5);}.cls-6{stroke:url(#radial-gradient-6);}.cls-7{stroke:url(#radial-gradient-7);}.cls-8{stroke:url(#radial-gradient-8);}.cls-9{stroke:url(#radial-gradient-9);}.cls-10{stroke:url(#radial-gradient-10);}</style><radialGradient id="radial-gradient" cx="44" cy="161.14" r="16.42" gradientUnits="userSpaceOnUse"><stop offset="0.19" stop-color="#b8422f"/><stop offset="0.41" stop-color="#b4402d"/><stop offset="0.63" stop-color="#a83928"/><stop offset="0.86" stop-color="#942f1f"/><stop offset="1" stop-color="#832617"/></radialGradient><radialGradient id="radial-gradient-2" cx="156" cy="161.14" r="16.42" xlink:href="#radial-gradient"/><radialGradient id="radial-gradient-3" cx="100" cy="98.24" r="48.16" xlink:href="#radial-gradient"/><radialGradient id="radial-gradient-4" cx="100" cy="140.5" r="57.15" xlink:href="#radial-gradient"/><radialGradient id="radial-gradient-5" cx="57.6" cy="140.43" r="13.57" xlink:href="#radial-gradient"/><radialGradient id="radial-gradient-6" cx="142.34" cy="140.43" r="13.57" xlink:href="#radial-gradient"/><radialGradient id="radial-gradient-7" cx="33.71" cy="118.1" r="3.92" xlink:href="#radial-gradient"/><radialGradient id="radial-gradient-8" cx="26.66" cy="110.83" r="9.91" xlink:href="#radial-gradient"/><radialGradient id="radial-gradient-9" cx="-110.97" cy="118.1" r="3.92" gradientTransform="matrix(-1, 0, 0, 1, 55.32, 0)" xlink:href="#radial-gradient"/><radialGradient id="radial-gradient-10" cx="-118.02" cy="110.83" r="9.91" gradientTransform="matrix(-1, 0, 0, 1, 55.32, 0)" xlink:href="#radial-gradient"/></defs><title>car</title><g id="car"><g id="wheels"><path class="cls-1" d="M61,163.07v5.43a4,4,0,0,1-4,4H31a4,4,0,0,1-4-4V149.78a22.55,22.55,0,0,0,20.57,13.29Z"/><path class="cls-2" d="M173,149.78V168.5a4,4,0,0,1-4,4H143a4,4,0,0,1-4-4v-5.43h13.43a22.53,22.53,0,0,0,16-6.61A22.29,22.29,0,0,0,173,149.78Z"/></g><g id="windscreen"><path class="cls-3" d="M161.84,120a21.27,21.27,0,0,0-4.33-1.48,22.35,22.35,0,0,0-5.08-.58H47.57a22.35,22.35,0,0,0-5.08.58A21.27,21.27,0,0,0,38.16,120l6.36-35.26a10,10,0,0,1,9.84-8.23h91.28a10,10,0,0,1,9.84,8.23Z"/></g><g id="grill"><rect class="cls-4" x="25" y="117.93" width="150" height="45.14" rx="22.57" ry="22.57"/><path class="cls-5" d="M69.17,140.43a11.59,11.59,0,1,1-3.23-8A11.57,11.57,0,0,1,69.17,140.43Z"/><path class="cls-6" d="M153.91,140.43a11.59,11.59,0,1,1-3.23-8A11.57,11.57,0,0,1,153.91,140.43Z"/></g><g id="mirrors"><path class="cls-7" d="M38.16,119.41a10,10,0,0,1-7.41-3.28"/><ellipse class="cls-8" cx="26.66" cy="110.83" rx="9.5" ry="6"/></g><g id="mirrors-2" data-name="mirrors"><path class="cls-9" d="M161.84,119.41a10,10,0,0,0,7.41-3.28"/><ellipse class="cls-10" cx="173.34" cy="110.83" rx="9.5" ry="6"/></g></g></svg>