<svg id="Layer_1" data-name="Layer 1" xmlns="http://www.w3.org/2000/svg" xmlns:xlink="http://www.w3.org/1999/xlink" viewBox="0 0 200 200"><defs><style>.cls-1,.cls-10,.cls-11,.cls-12,.cls-13,.cls-2,.cls-3,.cls-4,.cls-5,.cls-6,.cls-7,.cls-8,.cls-9{fill:none;stroke-linejoin:round;stroke-width:4px;}.cls-1{stroke:url(#radial-gradient);}.cls-2{stroke:url(#radial-gradient-2);}.cls-3{stroke:url(#radial-gradient-3);}.cls-4{stroke:url(#radial-gradient-4);}.cls-5{stroke:url(#radial-gradient-5);}.cls-6{stroke:url(#radial-gradient-6);}.cls-7{stroke:url(#radial-gradient-7);}.cls-8{stroke:url(#radial-gradient-8);}.cls-9{stroke:url(#radial-gradient-9);}.cls-10{stroke:url(#radial-gradient-10);}.cls-11{stroke:url(#radial-gradient-11);}.cls-12{stroke:url(#radial-gradient-12);}.cls-13{stroke:url(#radial-gradient-13);}</style><radialGradient id="radial-gradient" cx="44" cy="161.14" r="16.42" gradientUnits="userSpaceOnUse"><stop offset="0.19" stop-color="#b8422f"/><stop offset="0.41" stop-color="#b4402d"/><stop offset="0.63" stop-color="#a83928"/><stop offset="0.86" stop-color="#942f1f"/><stop offset="1" stop-color="#832617"/></radialGradient><radialGradient id="radial-gradient-2" cx="156" cy="161.14" r="16.42" xlink:href="#radial-gradient"/><radialGradient id="radial-gradient-3" cx="100" cy="68.24" r="48.16" xlink:href="#radial-gradient"/><radialGradient id="radial-gradient-4" cx="100" cy="140.5" r="57.15" gradientTransform="translate(0 -108.94) scale(1 1.67)" xlink:href="#radial-gradient"/><radialGradient id="radial-gradient-5" cx="57.6" cy="110.43" r="13.57" xlink:href="#radial-gradient"/><radialGradient id="radial-gradient-6" cx="142.34" cy="110.43" r="13.57" xlink:href="#radial-gradient"/><radialGradient id="radial-gradient-7" cx="100" cy="60.15" r="56.18" xlink:href="#radial-gradient"/><radialGradient id="radial-gradient-8" cx="165.08" cy="77.42" r="4.14" gradientTransform="translate(19.42) scale(0.88 1)" xlink:href="#radial-gradient"/><radialGradient id="radial-gradient-9" cx="165.63" cy="84.42" r="3.53" gradientTransform="translate(16.66) scale(0.9 1)" xlink:href="#radial-gradient"/><radialGradient id="radial-gradient-10" cx="176.44" cy="80.06" r="11.37" xlink:href="#radial-gradient"/><radialGradient id="radial-gradient-11" cx="328.18" cy="77.42" r="4.14" gradientTransform="matrix(-0.88, 0, 0, 1, 323.79, 0)" xlink:href="#radial-gradient"/><radialGradient id="radial-gradient-12" cx="325.41" cy="84.42" r="3.53" gradientTransform="matrix(-0.9, 0, 0, 1, 326.55, 0)" xlink:href="#radial-gradient"/><radialGradient id="radial-gradient-13" cx="319.69" cy="80.06" r="11.37" gradientTransform="matrix(1, 0, 0, -1, -296.17, 160.13)" xlink:href="#radial-gradient"/></defs><title>van</title><g id="van"><g id="wheels"><path class="cls-1" d="M61,163.07v5.43a4,4,0,0,1-4,4H31a4,4,0,0,1-4-4V149.78a22.55,22.55,0,0,0,20.57,13.29Z"/><path class="cls-2" d="M173,149.78V168.5a4,4,0,0,1-4,4H143a4,4,0,0,1-4-4v-5.43h13.43a22.53,22.53,0,0,0,16-6.61A22.29,22.29,0,0,0,173,149.78Z"/></g><g id="windscreen"><path class="cls-3" d="M161.84,90a21.27,21.27,0,0,0-4.33-1.48,22.35,22.35,0,0,0-5.08-.58H47.57a22.35,22.35,0,0,0-5.08.58A21.27,21.27,0,0,0,38.16,90l6.36-35.26a10,10,0,0,1,9.84-8.23h91.28a10,10,0,0,1,9.84,8.23Z"/></g><rect class="cls-4" x="25" y="87.77" width="150" height="75.3" rx="22.57" ry="22.57"/><path class="cls-5" d="M69.17,110.43a11.59,11.59,0,1,1-3.23-8A11.57,11.57,0,0,1,69.17,110.43Z"/><path class="cls-6" d="M153.91,110.43a11.59,11.59,0,1,1-3.23-8A11.57,11.57,0,0,1,153.91,110.43Z"/><polyline class="cls-7" points="30.75 95.3 30.75 27 169.25 27 169.25 95.3"/><line class="cls-8" x1="159.58" y1="77.42" x2="169.25" y2="77.42"/><line class="cls-9" x1="161.06" y1="84.42" x2="169.25" y2="84.42"/><rect class="cls-10" x="169.25" y="68.88" width="14.38" height="22.38" rx="4" ry="4"/><line class="cls-11" x1="40.39" y1="77.42" x2="30.71" y2="77.42"/><line class="cls-12" x1="38.9" y1="84.42" x2="30.71" y2="84.42"/><rect class="cls-13" x="16.33" y="68.87" width="14.38" height="22.38" rx="4" ry="4" transform="translate(47.04 160.13) rotate(-180)"/></g></svg>